<?xml version="1.0" standalone="no"?>
<!DOCTYPE svg PUBLIC "-//W3C//DTD SVG 20010904//EN"
 "http://www.w3.org/TR/2001/REC-SVG-20010904/DTD/svg10.dtd">
<svg version="1.0" xmlns="http://www.w3.org/2000/svg"
 width="2050.000000pt"  height="700.000000pt" viewBox="0 0 2500.000000 2000.000000"
 preserveAspectRatio="xMidYMid meet" style="opacity:0.2">
<metadata>
Created by potrace 1.15, written by Peter Selinger 2001-2017
</metadata>
<g transform="translate(0.000000,853.000000) scale(0.100000,-0.100000)"
fill="#9898e6   " stroke="none">
<path d="M6439 6635 c-195 -63 -291 -282 -205 -470 23 -51 26 -70 26 -166 l0
-109 -33 -14 c-50 -21 -103 -71 -121 -116 l-16 -40 -267 1 -268 0 -25 52 c-20
41 -37 59 -80 85 l-55 32 -5 143 -5 142 -40 0 -40 0 -3 -140 -3 -140 -47 -21
c-26 -12 -66 -24 -90 -28 -55 -8 -132 -47 -181 -91 l-38 -35 -534 1 -534 0
-25 52 c-33 66 -87 105 -157 114 -103 12 -194 -37 -229 -122 l-19 -45 -68 0
c-62 0 -68 -2 -79 -25 -8 -19 -8 -31 0 -50 11 -23 17 -25 81 -25 65 0 69 -1
75 -25 10 -38 71 -100 121 -124 43 -20 45 -23 45 -65 0 -43 -1 -44 -55 -70
-56 -28 -85 -59 -110 -120 l-15 -36 -69 0 c-61 0 -70 -3 -76 -20 -3 -11 -3
-29 0 -40 6 -17 15 -20 75 -20 l69 0 19 -42 c24 -52 74 -102 125 -123 35 -15
37 -17 37 -64 l0 -48 -57 -29 c-81 -42 -118 -102 -118 -194 0 -90 37 -153 112
-190 l52 -25 0 -66 1 -65 -46 -22 c-25 -12 -67 -43 -93 -67 l-48 -45 -475 0
c-355 0 -477 -3 -486 -12 -8 -8 -12 -63 -12 -180 l0 -169 -62 3 -63 3 -3 145
c-2 122 -5 147 -19 158 -12 8 -63 12 -170 12 l-152 0 -3 123 -3 122 -45 7
c-25 3 -469 7 -987 7 l-943 1 0 -105 0 -105 893 -2 892 -3 3 -22 3 -23 -895 0
-896 0 0 -145 0 -145 892 -2 893 -3 5 -350 5 -350 325 -5 c179 -3 -225 -6
-897 -8 l-1223 -2 0 -110 0 -110 413 0 c228 0 624 -3 880 -7 l467 -6 0 -163
c0 -174 0 -174 -55 -210 -36 -24 -77 -110 -77 -163 0 -120 108 -231 224 -231
45 0 127 39 160 76 31 36 68 117 68 151 0 45 -39 119 -89 168 l-41 39 0 168 0
168 308 1 c169 0 327 4 352 7 l45 7 5 110 5 110 47 3 c43 3 49 0 85 -39 49
-53 120 -89 176 -89 34 0 57 9 104 39 50 32 66 50 92 102 37 74 38 98 7 164
-43 90 -122 145 -208 145 -60 0 -138 -39 -177 -89 -32 -40 -36 -42 -80 -39
l-46 3 0 95 0 95 181 3 182 2 49 -48 c59 -57 126 -87 176 -78 55 10 124 61
161 118 18 29 44 62 56 73 28 25 70 111 70 145 0 46 -63 142 -112 173 -94 58
-182 45 -265 -40 l-52 -53 -221 0 -220 0 0 75 0 75 374 0 375 0 47 -50 c31
-33 64 -56 96 -68 l48 -17 0 -112 0 -112 -29 -16 c-64 -33 -100 -114 -81 -185
13 -48 50 -93 90 -110 30 -12 30 -13 30 -91 l0 -79 -37 -15 c-51 -21 -101 -71
-125 -122 l-19 -43 -69 0 c-60 0 -69 -3 -75 -20 -3 -11 -3 -29 0 -40 6 -17 15
-20 75 -20 l68 0 26 -55 c28 -56 59 -85 120 -110 34 -14 36 -18 36 -60 0 -43
-2 -46 -45 -66 -50 -24 -111 -86 -121 -124 -6 -24 -9 -25 -79 -25 -73 0 -73 0
-80 -29 -3 -17 -1 -39 5 -50 9 -18 21 -21 78 -21 l67 -1 25 -52 c17 -35 39
-62 68 -82 40 -27 51 -30 122 -30 71 0 82 3 122 30 29 20 51 47 68 82 l25 52
622 1 623 0 14 -33 c21 -52 73 -104 121 -123 l44 -17 3 -141 3 -141 40 0 40 0
5 142 5 143 55 32 c43 26 60 44 80 85 l25 52 113 0 112 1 0 -128 0 -128 -33
-12 c-141 -51 -241 -211 -222 -357 14 -115 98 -230 203 -278 72 -33 207 -31
282 4 191 90 256 325 139 503 -37 55 -107 111 -161 128 l-38 11 0 129 0 128
70 0 69 0 19 -42 c23 -52 64 -91 115 -113 l37 -15 0 -139 c0 -149 1 -151 54
-151 41 0 46 16 46 160 l0 136 33 12 c44 16 103 76 117 118 l12 34 627 0 627
0 13 -35 c16 -44 70 -100 116 -119 l35 -15 0 -139 c0 -150 1 -152 54 -152 41
0 46 17 46 156 l0 132 45 22 c51 25 101 80 110 122 l7 28 617 0 c467 0 620 3
629 12 13 13 16 47 6 72 -6 14 -70 16 -628 16 l-622 0 -12 34 c-15 40 -81 103
-123 118 -27 9 -29 14 -29 61 l0 52 45 19 c49 19 85 59 110 119 l15 37 380 0
379 0 15 -27 c33 -64 114 -109 175 -98 51 9 105 47 124 88 41 86 3 192 -80
227 l-23 10 0 364 0 364 28 7 c38 9 121 64 139 92 l15 23 473 0 c450 0 474 1
496 19 23 19 24 25 27 186 l3 166 57 -3 57 -3 3 -145 c2 -122 5 -147 19 -157
12 -9 63 -13 170 -13 l152 0 3 -122 3 -123 30 -6 c17 -4 461 -7 988 -8 l957
-1 0 100 0 100 -603 0 c-332 0 -733 3 -890 7 l-287 6 0 24 0 23 890 0 890 0 0
145 0 145 -890 0 -890 0 0 338 c0 255 -3 342 -12 355 -12 15 -46 17 -333 20
-176 1 230 3 903 5 l1222 2 0 110 0 110 -875 0 -875 0 0 173 0 174 40 32 c70
56 102 147 80 226 -24 87 -132 175 -215 175 -72 0 -168 -69 -211 -152 -37 -72
-6 -179 72 -247 l34 -30 0 -176 0 -175 -343 0 c-253 0 -346 -3 -355 -12 -8 -8
-12 -48 -12 -115 l0 -103 -48 0 c-43 0 -52 4 -87 41 -49 50 -123 89 -170 89
-71 0 -161 -64 -200 -141 -32 -62 -32 -116 -1 -177 45 -87 114 -132 203 -132
64 1 119 27 171 84 39 41 48 46 88 46 l44 0 0 -100 0 -100 -183 0 -183 0 -35
36 c-79 82 -165 107 -239 69 -45 -22 -97 -72 -117 -110 -9 -16 -24 -36 -35
-43 -34 -24 -78 -114 -78 -160 0 -106 109 -212 218 -212 50 0 136 44 164 83
12 18 27 35 33 39 5 4 110 8 233 8 l222 0 0 -75 0 -75 -378 0 -377 0 -44 46
c-42 45 -108 83 -143 84 -17 0 -18 25 -18 385 l0 385 23 10 c83 35 121 141 81
226 -19 40 -60 72 -109 85 -66 19 -156 -25 -191 -92 l-15 -29 -378 0 -379 0
-27 56 c-20 41 -39 64 -73 85 -25 16 -52 29 -59 29 -9 0 -13 16 -13 54 0 53 1
55 34 66 40 13 112 87 122 124 l6 26 617 0 c467 0 620 3 629 12 7 7 12 24 12
38 0 14 -5 31 -12 38 -9 9 -162 12 -629 12 l-617 0 -7 28 c-9 42 -59 97 -110
122 l-45 22 0 133 c0 148 -4 159 -62 153 l-33 -3 -5 -142 -5 -143 -55 -32
c-43 -26 -60 -44 -80 -85 l-25 -52 -572 0 -573 -1 0 128 0 127 54 23 c71 31
132 93 169 171 60 126 36 268 -63 375 -61 66 -134 99 -229 103 -48 2 -93 -3
-122 -12z m189 -181 c59 -38 78 -122 42 -182 -92 -150 -312 -38 -241 123 34
76 128 104 199 59z m-205 -465 l37 -12 0 -73 0 -73 -36 24 c-20 14 -43 25 -50
25 -10 0 -14 17 -14 66 0 49 3 64 13 60 6 -2 29 -10 50 -17z m4604 -184 c90
-59 80 -189 -19 -241 -56 -29 -135 -5 -169 50 -23 38 -25 106 -3 147 31 61
130 84 191 44z m-6138 -217 c-44 -156 65 -354 221 -402 l45 -13 3 -147 3 -146
69 0 70 0 0 -115 0 -115 -225 0 -225 0 0 165 c0 162 0 166 23 174 25 10 69 55
86 88 18 35 13 102 -11 145 -38 66 -108 97 -181 77 -46 -12 -90 -48 -113 -91
l-15 -28 -379 0 -380 0 -15 36 c-25 61 -54 92 -110 120 -54 26 -55 27 -55 70
0 42 2 45 45 65 50 24 111 86 121 124 l6 25 513 0 514 0 -10 -32z m1211 13
c20 -39 15 -41 -140 -41 l-150 0 0 -255 0 -255 -210 0 -210 0 0 78 0 77 55 48
c31 27 66 70 79 96 24 47 49 150 42 174 -3 6 -7 31 -10 55 l-6 42 270 0 c256
0 270 -1 280 -19z m1688 -9 c15 -43 68 -99 113 -118 38 -17 39 -19 39 -70 0
-47 -2 -52 -25 -58 -38 -10 -106 -75 -127 -123 l-19 -43 -383 0 -384 0 -12 30
c-17 40 -62 77 -110 90 -117 31 -231 -83 -200 -200 13 -48 50 -93 90 -110 l30
-12 0 -164 0 -164 -220 0 -220 0 0 370 0 369 133 3 132 3 3 113 3 112 573 0
574 0 10 -28z m-2601 -76 c15 -16 47 -37 71 -48 32 -14 42 -24 42 -42 0 -31
-21 -47 -67 -52 -75 -10 -153 60 -153 135 0 20 10 52 21 71 l21 34 18 -35 c10
-19 31 -47 47 -63z m1073 -496 l0 -370 -145 0 -145 0 0 370 0 370 145 0 145 0
0 -370z m-1599 43 c13 -21 41 -49 62 -62 l37 -24 0 -164 0 -163 -169 0 c-155
0 -170 2 -175 18 -11 32 -72 83 -112 92 -74 17 -153 -22 -190 -92 -14 -28 -15
-28 -124 -28 l-109 0 -19 43 c-11 23 -32 55 -48 71 -16 16 -48 37 -71 48 -42
19 -43 20 -43 68 0 48 1 49 43 68 51 24 101 74 122 125 l15 37 378 0 379 0 24
-37z m3127 -5 c21 -49 89 -114 127 -124 23 -6 25 -11 25 -63 0 -56 -1 -57 -34
-69 -40 -15 -113 -90 -122 -126 -6 -25 -8 -26 -89 -26 l-82 0 -5 83 c-6 102
-32 162 -103 233 -72 72 -142 97 -255 92 -98 -5 -145 -25 -217 -91 -69 -63
-96 -125 -101 -229 -4 -85 -5 -88 -28 -88 l-24 0 0 163 1 162 42 26 c26 16 50
41 61 62 l17 37 384 0 384 0 19 -42z m1207 5 c11 -21 37 -49 58 -62 l37 -24 0
-164 0 -163 -168 0 -167 0 -19 35 c-33 62 -109 93 -179 74 -42 -11 -103 -60
-112 -90 -6 -17 -16 -19 -123 -19 l-117 1 -24 50 c-17 37 -36 59 -69 80 -25
16 -52 29 -59 29 -9 0 -13 17 -13 60 0 43 4 60 13 60 7 0 34 13 59 29 34 21
53 44 73 85 l27 56 382 0 381 0 20 -37z m896 -118 c40 -21 69 -71 69 -120 0
-80 -59 -135 -146 -135 -41 0 -51 5 -85 39 -35 34 -39 44 -39 87 0 61 16 92
59 121 40 27 98 30 142 8z m-4081 -180 l0 -115 -207 2 -208 3 -3 113 -3 112
211 0 210 0 0 -115z m1545 71 c17 -12 16 -14 -17 -20 -61 -11 -122 -58 -151
-116 -25 -50 -26 -51 -33 -25 -13 53 2 108 40 142 31 29 43 33 89 33 29 0 62
-6 72 -14z m3463 -378 l2 -258 -28 0 c-48 0 -52 12 -52 166 0 120 -2 143 -16
148 -9 3 -94 6 -190 6 l-174 0 0 100 0 100 228 -2 227 -3 3 -257z m-6697 65
c13 -21 41 -49 62 -62 l37 -24 0 -113 c0 -108 -1 -113 -22 -120 -116 -36 -181
-183 -133 -297 19 -46 78 -103 121 -117 l34 -12 0 -112 0 -113 -37 -24 c-21
-13 -49 -41 -62 -62 l-24 -37 -136 0 -136 0 -20 37 c-11 21 -37 49 -57 62
l-38 24 0 118 c0 111 1 118 21 124 65 21 149 141 149 212 -1 73 -63 170 -134
208 l-36 20 0 75 0 76 35 13 c45 16 93 65 117 118 l19 43 108 0 108 0 24 -37z
m639 5 c0 -18 -11 -27 -45 -41 -68 -28 -130 -89 -167 -165 -28 -55 -33 -77
-33 -137 0 -38 4 -87 9 -107 8 -36 7 -38 -17 -38 -20 0 -28 7 -37 34 -6 19
-29 53 -51 75 -22 22 -56 45 -75 51 l-34 12 0 114 c0 110 1 115 23 123 25 10
87 75 87 91 0 6 67 10 170 10 170 0 170 0 170 -22z m540 -123 l0 -145 -54 0
-55 0 -24 54 c-14 29 -41 72 -62 95 -43 48 -139 97 -207 107 -31 4 -48 11 -48
20 0 12 40 14 225 14 l225 0 0 -145z m510 0 l0 -145 -210 0 -210 0 0 145 0
145 210 0 210 0 0 -145z m450 0 l0 -145 -145 0 -145 0 0 145 0 145 145 0 145
0 0 -145z m540 0 l0 -145 -220 0 -220 0 0 145 0 145 220 0 220 0 0 -145z m223
81 c35 -36 78 -69 100 -77 l37 -13 0 -68 0 -68 -140 0 -140 0 0 145 0 145 40
0 c36 0 46 -6 103 -64z m765 30 c15 -40 90 -113 126 -122 26 -6 26 -8 26 -98
l0 -91 -61 -2 c-85 -3 -165 -42 -229 -109 l-50 -53 -25 48 c-28 56 -70 94
-120 111 l-35 12 0 83 0 84 43 19 c51 23 103 74 119 119 l12 33 91 0 91 0 12
-34z m667 1 c11 -18 37 -43 58 -56 l37 -24 0 -112 0 -112 -39 -18 c-49 -22
-95 -69 -116 -117 l-15 -38 -91 0 -91 0 -43 48 c-24 26 -59 57 -79 67 l-36 20
0 105 1 105 50 24 c37 17 59 36 80 69 16 25 29 52 29 59 0 10 27 13 118 13
l117 -1 20 -32z m635 -135 l0 -169 -39 -18 c-49 -22 -95 -69 -116 -117 -15
-37 -16 -38 -69 -38 -54 0 -55 1 -66 36 -16 47 -77 108 -124 124 l-36 12 0
114 c0 110 1 115 23 123 28 11 74 57 82 82 6 18 18 19 176 19 l169 0 0 -168z
m475 64 c88 -58 71 -203 -29 -241 -134 -51 -247 114 -149 218 15 16 37 33 48
38 28 13 100 4 130 -15z m-2228 -188 c-2 -24 -4 -5 -4 42 0 47 2 66 4 43 2
-24 2 -62 0 -85z m-2422 18 c37 -16 61 -46 75 -95 15 -53 3 -61 -35 -25 -19
18 -50 38 -70 44 -32 11 -35 15 -35 51 0 44 10 48 65 25z m-166 -67 c-20 -12
-22 -4 -7 20 11 18 14 19 16 5 2 -9 -2 -20 -9 -25z m-1030 -97 c66 -35 90
-125 51 -189 -25 -41 -68 -63 -124 -63 -83 0 -145 81 -126 165 20 89 117 131
199 87z m2089 -44 c-3 -22 -7 -23 -130 -26 -76 -1 -128 1 -128 7 0 5 -3 16 -6
25 -5 14 10 16 131 16 136 0 136 0 133 -22z m293 0 c-7 -20 -15 -23 -67 -23
-54 0 -59 2 -62 23 -3 21 0 22 67 22 69 0 70 -1 62 -22z m531 1 c-11 -28 -26
-29 -30 -1 -3 17 2 22 17 22 16 0 19 -4 13 -21z m541 1 c-8 -31 -23 -34 -23
-6 0 16 6 26 14 26 9 0 12 -7 9 -20z m-2568 -160 c21 -47 84 -107 126 -122
l29 -10 0 -142 0 -143 -51 -23 c-62 -30 -123 -94 -157 -168 -22 -47 -26 -72
-26 -137 0 -94 27 -165 89 -234 l37 -41 -386 0 -386 0 -15 38 c-21 50 -71 100
-122 124 l-43 19 0 78 c0 78 0 79 30 91 33 14 75 58 85 90 6 19 15 20 145 20
l139 0 15 -27 c57 -109 191 -130 271 -42 40 45 50 74 42 131 -7 49 -31 85 -80
117 l-37 24 0 113 0 112 34 12 c19 6 53 29 75 51 22 22 45 56 51 75 11 33 13
34 64 34 52 0 53 -1 71 -40z m533 -2 c22 -50 76 -101 127 -119 l35 -13 -2
-251 -3 -250 -51 -3 -51 -3 -19 43 c-23 52 -76 113 -125 144 -42 26 -130 54
-171 54 l-28 0 0 135 0 135 26 6 c14 4 45 21 67 38 23 17 62 43 87 58 25 14
54 35 64 47 11 12 20 21 22 21 2 0 12 -19 22 -42z m667 -298 l0 -335 -205 0
-205 0 -3 252 -2 253 32 13 c52 22 95 64 115 112 l18 45 125 -2 125 -3 0 -335z
m300 303 c21 -49 67 -96 116 -118 l39 -18 0 -199 c0 -183 -2 -202 -20 -228
-11 -15 -24 -39 -30 -54 l-10 -27 -112 3 -113 3 -3 325 c-1 179 0 330 3 337 3
8 24 13 60 13 54 0 55 -1 70 -37z m533 -5 c22 -50 76 -101 126 -119 l36 -13 0
-198 c0 -109 -3 -198 -6 -198 -3 0 -26 18 -52 40 -25 22 -67 48 -94 57 l-48
18 0 221 c0 192 3 234 16 234 2 0 12 -19 22 -42z m1302 -68 l0 -110 -54 0
c-60 0 -96 21 -121 70 -19 38 -19 100 1 128 13 20 24 22 95 22 l79 0 0 -110z
m455 73 c21 -49 67 -96 116 -118 l39 -18 0 -113 0 -113 -29 -15 c-33 -18 -81
-71 -81 -92 0 -11 -26 -14 -142 -14 l-143 0 -20 37 c-11 21 -34 47 -52 58 -18
11 -32 22 -32 25 0 3 18 16 41 30 88 54 150 175 148 289 -1 37 -1 69 -1 74 1
4 32 7 71 7 l70 0 15 -37z m543 -6 c24 -55 71 -108 116 -132 l36 -20 0 -371 0
-371 -37 -24 c-21 -13 -47 -41 -58 -62 l-20 -37 -381 0 -382 0 -27 56 c-20 41
-39 64 -73 85 -25 16 -52 29 -59 29 -10 0 -13 21 -13 83 l0 84 38 24 c20 13
46 41 57 62 l20 37 137 0 137 0 15 -29 c49 -93 169 -123 254 -62 97 68 76 235
-35 281 -22 9 -23 15 -23 122 l0 113 50 23 c52 24 105 83 116 129 6 20 12 23
60 23 53 0 53 0 72 -43z m-1958 -107 c0 -19 8 -20 178 -22 l177 -3 3 -82 3
-82 -43 -19 c-210 -93 -164 -398 63 -420 92 -9 181 46 221 136 l19 42 113 0
114 0 19 -37 c11 -21 36 -49 56 -62 l37 -24 0 -83 0 -82 -34 -12 c-43 -14
-112 -87 -121 -129 l-7 -31 -363 0 -362 0 -6 30 c-9 41 -73 109 -124 131 l-43
18 0 353 0 354 43 20 c55 27 57 27 57 4z m-540 -148 l0 -159 -40 -16 -40 -15
0 159 0 159 33 14 c17 8 35 15 40 15 4 1 7 -70 7 -157z m-4382 -17 c1 -81 7
-144 14 -152 8 -10 54 -13 195 -13 l184 0 -3 -97 -3 -98 -230 0 -230 0 -3 245
c-1 134 0 250 2 256 3 8 16 9 38 5 l33 -7 3 -139z m1353 116 c35 -34 39 -44
39 -87 0 -86 -55 -144 -135 -144 -132 0 -184 166 -79 249 20 16 41 21 82 21
50 0 58 -3 93 -39z m4170 -18 c44 -103 137 -180 246 -204 l52 -12 -18 -26
c-10 -14 -21 -34 -24 -43 -6 -16 -21 -18 -121 -18 l-115 0 -19 43 c-24 54 -65
95 -119 119 l-43 19 0 84 0 85 70 0 71 0 20 -47z m-4510 -469 c44 -42 56 -93
35 -148 -42 -109 -200 -117 -250 -12 -28 60 -16 116 36 162 32 30 46 34 101
30 36 -2 55 -10 78 -32z m1890 11 c90 -47 90 -193 0 -240 -17 -8 -48 -15 -71
-15 l-40 0 0 135 0 135 40 0 c23 0 54 -7 71 -15z m1665 -4 c34 -21 64 -75 64
-116 0 -41 -30 -95 -64 -116 -19 -11 -50 -19 -78 -19 -116 0 -175 142 -96 228
13 13 32 28 43 32 35 15 99 11 131 -9z m-1328 -449 l2 -283 -42 -18 c-48 -21
-114 -88 -124 -126 l-6 -25 -627 0 -627 0 -12 35 c-16 41 -92 111 -133 120
-27 6 -29 10 -29 55 l0 48 55 26 c56 28 85 59 110 120 l15 36 380 0 379 0 12
-22 c66 -129 230 -140 297 -20 12 22 22 46 22 54 0 8 20 24 45 36 24 12 62 38
84 58 41 36 101 142 101 176 0 17 6 19 48 16 l47 -3 3 -283z m901 230 c10 -30
28 -67 40 -82 19 -27 21 -42 21 -199 l0 -171 -237 -2 -238 -3 -3 -112 -3 -113
-113 0 -114 0 -13 32 c-19 47 -63 92 -109 113 l-40 18 0 282 c0 155 3 285 7
288 4 4 182 6 395 5 l389 -3 18 -53z m206 -216 l35 -15 0 -110 0 -111 -40 0
-40 0 0 125 c0 69 2 125 5 125 3 0 21 -7 40 -14z m272 -138 c29 -33 113 -68
164 -68 87 0 175 64 208 153 l11 27 354 0 355 0 19 -42 c23 -52 74 -104 119
-120 32 -11 33 -14 33 -63 0 -51 -1 -52 -40 -70 -46 -21 -97 -74 -112 -117
l-10 -28 -627 0 -628 0 -11 25 c-17 36 -18 35 38 35 l50 0 0 193 c0 107 3 197
7 200 3 4 16 -18 29 -49 12 -31 31 -65 41 -76z m-4748 -285 c85 -63 75 -186
-20 -236 -92 -49 -208 33 -195 137 12 104 133 159 215 99z m4181 6 c0 -6 -5
-19 -10 -30 -9 -16 -22 -19 -80 -19 l-70 0 0 30 0 30 80 0 c50 0 80 -4 80 -11z
m-212 -653 c122 -63 100 -237 -33 -262 -48 -9 -119 25 -141 67 -61 118 60 254
174 195z"/>
<path d="M4232 6168 c-16 -16 -15 -33 2 -47 20 -16 51 26 34 46 -13 16 -21 16
-36 1z"/>
<path d="M1505 5578 c-89 -46 -134 -115 -135 -206 0 -66 23 -113 84 -170 l46
-43 0 -155 0 -154 -750 0 -750 0 0 -100 0 -100 845 0 845 0 0 258 0 258 41 39
c50 49 89 123 89 170 0 71 -64 161 -141 200 -59 31 -119 32 -174 3z m180 -89
c76 -67 63 -178 -27 -225 -61 -32 -147 -5 -180 57 -51 96 12 199 124 199 39 0
54 -6 83 -31z"/>
<path d="M2879 5015 c-25 -13 -60 -40 -77 -59 l-31 -36 -474 0 c-363 0 -477
-3 -490 -12 -14 -11 -17 -36 -19 -158 l-3 -145 -892 -3 -893 -2 0 -100 0 -100
964 0 c596 0 974 4 990 10 l25 9 3 148 3 148 385 3 384 2 45 -46 c125 -131
294 -105 377 58 28 55 30 91 8 144 -25 61 -61 102 -117 134 -65 37 -123 39
-188 5z m191 -104 c32 -22 60 -77 60 -116 0 -16 -9 -45 -20 -63 -92 -150 -312
-38 -241 123 34 78 132 105 201 56z"/>
<path d="M10865 3583 c-43 -11 -45 -20 -45 -169 l0 -144 -389 0 -390 0 -27 35
c-38 50 -103 85 -166 92 -45 4 -61 1 -108 -24 -90 -47 -151 -156 -130 -233 17
-64 65 -127 122 -159 93 -54 185 -37 266 49 l37 40 476 0 c431 0 478 2 490 16
10 12 16 59 19 156 l5 139 888 -1 887 -1 0 106 0 105 -957 -1 c-527 -1 -967
-4 -978 -6z m-979 -278 c107 -70 70 -231 -59 -252 -77 -12 -151 55 -151 137 0
110 119 175 210 115z"/>
<path d="M11110 3076 l0 -264 -34 -26 c-48 -36 -101 -144 -92 -188 25 -131
172 -240 276 -204 90 31 148 91 171 178 18 66 -6 141 -62 197 -23 23 -45 41
-50 41 -5 0 -9 74 -9 165 l0 165 745 0 745 0 0 100 0 100 -845 0 -845 0 0
-264z m157 -353 c47 -22 73 -66 73 -125 0 -87 -84 -151 -167 -129 -120 33
-140 201 -30 255 41 20 80 20 124 -1z"/>
</g>
</svg>
