<?xml version="1.0" standalone="no"?>
<!DOCTYPE svg PUBLIC "-//W3C//DTD SVG 20010904//EN"
 "http://www.w3.org/TR/2001/REC-SVG-20010904/DTD/svg10.dtd">
<svg version="1.0" xmlns="http://www.w3.org/2000/svg"
 width="1280.000000pt" height="1280.000000pt" viewBox="0 0 1280.000000 1280.000000"
 preserveAspectRatio="xMidYMid meet">
<metadata>
Created by potrace 1.15, written by Peter Selinger 2001-2017
</metadata>
<g transform="translate(0.000000,1280.000000) scale(0.100000,-0.100000)"
fill="#000000" stroke="none">
<path d="M6095 12794 c-27 -2 -115 -8 -195 -14 -1158 -85 -2296 -503 -3249
-1194 -1410 -1020 -2339 -2557 -2585 -4276 -49 -341 -60 -508 -60 -910 0 -402
11 -569 60 -910 176 -1227 699 -2366 1518 -3305 132 -151 433 -452 594 -593
968 -850 2160 -1386 3427 -1541 308 -38 447 -46 795 -46 348 0 487 8 795 46
1993 244 3764 1427 4767 3184 456 799 722 1651 815 2610 24 253 24 857 0 1110
-81 836 -282 1553 -638 2276 -496 1007 -1245 1859 -2194 2499 -271 183 -726
428 -1045 563 -627 266 -1261 422 -1985 488 -112 10 -729 20 -820 13z m845
-569 c748 -74 1424 -266 2069 -589 1755 -879 2947 -2559 3195 -4506 57 -444
57 -1016 0 -1460 -190 -1489 -937 -2843 -2091 -3788 -864 -709 -1899 -1153
-2993 -1286 -276 -34 -395 -41 -720 -41 -325 0 -444 7 -720 41 -2051 249
-3828 1582 -4652 3489 -251 580 -400 1177 -460 1845 -28 312 -15 862 28 1200
247 1945 1440 3627 3195 4506 714 357 1479 558 2309 608 141 8 692 -4 840 -19z"/>
<path d="M2597 9455 c-18 -18 -257 -429 -271 -467 -16 -43 4 -57 90 -60 l74
-3 3 -2662 2 -2662 21 -28 c11 -15 36 -36 55 -45 32 -17 230 -18 3707 -18
l3672 0 0 -80 c0 -126 -5 -127 280 37 247 142 274 164 239 198 -22 20 -469
275 -483 275 -26 0 -35 -27 -38 -105 l-3 -80 -270 0 -270 0 -5 2078 c-4 1832
-7 2079 -20 2087 -9 6 -244 10 -587 10 l-572 0 -15 -22 c-14 -20 -16 -119 -16
-870 l0 -848 -490 0 -490 0 0 178 c0 169 -1 180 -21 198 -20 18 -45 19 -594
19 -549 0 -574 -1 -594 -19 -21 -19 -21 -23 -21 -543 l0 -523 -485 0 -485 0 0
258 c0 207 -3 262 -14 278 -14 18 -33 19 -578 21 -441 2 -568 0 -588 -10 l-25
-13 -3 -372 -2 -372 -535 0 -535 0 0 1820 0 1820 83 0 c86 0 107 8 107 43 0
22 -254 467 -277 485 -21 16 -28 15 -46 -3z m6683 -3675 l0 -2030 -482 2 -483
3 -3 2028 -2 2027 485 0 485 0 0 -2030z m-2195 -670 l0 -1355 -490 0 -490 0
-3 1345 c-1 740 0 1351 3 1358 3 10 107 12 492 10 l488 -3 0 -1355z m1103
-197 l-3 -1158 -485 0 -485 0 -3 1158 -2 1157 490 0 490 0 -2 -1157z m-3300
-65 l-3 -1093 -482 -3 -483 -2 0 1095 0 1095 485 0 485 0 -2 -1092z m1092
-283 l0 -815 -482 2 -483 3 -3 813 -2 812 485 0 485 0 0 -815z m-2185 -105 l0
-705 -502 -3 -503 -2 0 710 0 710 503 -2 502 -3 0 -705z"/>
</g>
</svg>
