<?xml version="1.0" standalone="no"?>
<!DOCTYPE svg PUBLIC "-//W3C//DTD SVG 20010904//EN"
 "http://www.w3.org/TR/2001/REC-SVG-20010904/DTD/svg10.dtd">
<svg version="1.0" xmlns="http://www.w3.org/2000/svg"
 width="30.000000pt" height="30.000000pt" viewBox="0 0 1280.000000 1280.000000"
 preserveAspectRatio="xMidYMid meet">
<metadata>
Created by potrace 1.15, written by Peter Selinger 2001-2017
</metadata>
<g transform="translate(0.000000,1280.000000) scale(0.100000,-0.100000)"
fill="#000000" stroke="none">
<path d="M6095 12794 c-27 -2 -115 -8 -195 -14 -1158 -85 -2296 -503 -3249
-1194 -1410 -1020 -2339 -2557 -2585 -4276 -49 -341 -60 -508 -60 -910 0 -402
11 -569 60 -910 176 -1227 699 -2366 1518 -3305 132 -151 433 -452 594 -593
968 -850 2160 -1386 3427 -1541 308 -38 447 -46 795 -46 348 0 487 8 795 46
1993 244 3764 1427 4767 3184 456 799 722 1651 815 2610 24 253 24 857 0 1110
-81 836 -282 1553 -638 2276 -496 1007 -1245 1859 -2194 2499 -271 183 -726
428 -1045 563 -627 266 -1261 422 -1985 488 -112 10 -729 20 -820 13z m845
-569 c748 -74 1424 -266 2069 -589 1755 -879 2947 -2559 3195 -4506 57 -444
57 -1016 0 -1460 -190 -1489 -937 -2843 -2091 -3788 -864 -709 -1899 -1153
-2993 -1286 -276 -34 -395 -41 -720 -41 -325 0 -444 7 -720 41 -2051 249
-3828 1582 -4652 3489 -251 580 -400 1177 -460 1845 -28 312 -15 862 28 1200
247 1945 1440 3627 3195 4506 714 357 1479 558 2309 608 141 8 692 -4 840 -19z"/>
<path d="M10140 8845 c-36 -8 -157 -32 -270 -54 -547 -107 -1077 -210 -1490
-291 -250 -49 -1263 -247 -2250 -440 -987 -193 -2001 -391 -2252 -440 -581
-114 -1281 -251 -1693 -332 -308 -60 -321 -63 -355 -94 -32 -30 -35 -37 -35
-89 0 -55 2 -59 46 -99 25 -22 404 -331 842 -684 l797 -644 0 -927 0 -928 23
-34 c27 -40 88 -66 133 -55 20 5 173 151 524 501 l495 495 885 -716 c487 -394
896 -720 910 -726 34 -13 97 -4 122 19 11 10 864 1223 1895 2696 1295 1849
1876 2687 1879 2710 6 38 -20 92 -56 119 -36 26 -76 29 -150 13z m8 -158 c-10
-7 -1348 -787 -2975 -1735 l-2958 -1723 -300 -589 c-233 -456 -301 -582 -303
-559 -3 24 17 379 73 1338 8 134 16 245 17 246 2 1 626 294 1388 652 2443
1149 4598 2162 4835 2274 127 60 232 109 235 109 3 -1 -3 -6 -12 -13z"/>
</g>
</svg>
