<?xml version="1.0" standalone="no"?>
<!DOCTYPE svg PUBLIC "-//W3C//DTD SVG 20010904//EN"
 "http://www.w3.org/TR/2001/REC-SVG-20010904/DTD/svg10.dtd">
<svg version="1.0" xmlns="http://www.w3.org/2000/svg"
 width="1280.000000pt" height="1280.000000pt" viewBox="0 0 1280.000000 1280.000000"
 preserveAspectRatio="xMidYMid meet">
<metadata>
Created by potrace 1.15, written by Peter Selinger 2001-2017
</metadata>
<g transform="translate(0.000000,1280.000000) scale(0.100000,-0.100000)"
fill="#000000" stroke="none">
<path d="M6095 12794 c-27 -2 -115 -8 -195 -14 -1158 -85 -2296 -503 -3249
-1194 -1410 -1020 -2339 -2557 -2585 -4276 -49 -341 -60 -508 -60 -910 0 -402
11 -569 60 -910 176 -1227 699 -2366 1518 -3305 132 -151 433 -452 594 -593
968 -850 2160 -1386 3427 -1541 308 -38 447 -46 795 -46 348 0 487 8 795 46
1993 244 3764 1427 4767 3184 456 799 722 1651 815 2610 24 253 24 857 0 1110
-81 836 -282 1553 -638 2276 -496 1007 -1245 1859 -2194 2499 -271 183 -726
428 -1045 563 -627 266 -1261 422 -1985 488 -112 10 -729 20 -820 13z m845
-569 c748 -74 1424 -266 2069 -589 1755 -879 2947 -2559 3195 -4506 57 -444
57 -1016 0 -1460 -190 -1489 -937 -2843 -2091 -3788 -864 -709 -1899 -1153
-2993 -1286 -276 -34 -395 -41 -720 -41 -325 0 -444 7 -720 41 -2051 249
-3828 1582 -4652 3489 -251 580 -400 1177 -460 1845 -28 312 -15 862 28 1200
247 1945 1440 3627 3195 4506 714 357 1479 558 2309 608 141 8 692 -4 840 -19z"/>
<path d="M3738 10035 c-224 -61 -400 -252 -438 -475 -8 -47 -10 -950 -8 -3200
l3 -3135 27 -75 c53 -145 157 -266 288 -334 135 -71 -54 -66 2410 -66 1996 0
2228 2 2284 16 211 54 387 238 431 449 16 78 21 399 6 393 -5 -1 -59 -23 -119
-48 l-110 -45 -4 -130 c-3 -124 -5 -135 -36 -198 -36 -73 -96 -132 -170 -169
l-47 -23 -2235 0 -2235 0 -55 29 c-73 37 -143 113 -172 184 l-23 57 0 3135 0
3135 23 57 c31 75 101 150 177 185 l60 28 2230 0 2230 0 47 -23 c75 -38 134
-96 170 -170 l33 -67 5 -2253 5 -2253 118 125 117 125 -2 2143 -3 2143 -27 75
c-53 145 -157 266 -288 334 -135 71 56 66 -2416 65 -1792 -1 -2238 -3 -2276
-14z"/>
<path d="M4225 8931 c-81 -34 -94 -146 -24 -206 l31 -25 1795 0 1795 0 34 34
c30 30 34 40 34 85 0 42 -5 56 -29 83 l-29 33 -1794 2 c-986 1 -1802 -2 -1813
-6z"/>
<path d="M4231 8137 c-77 -27 -100 -134 -42 -196 l29 -31 1802 0 1802 0 28 28
c59 59 43 158 -30 194 -33 17 -139 18 -1795 17 -1337 0 -1768 -3 -1794 -12z"/>
<path d="M4231 7317 c-77 -27 -100 -134 -42 -196 l29 -31 1802 0 1802 0 28 28
c54 54 46 148 -16 189 -27 17 -102 18 -1799 20 -1355 2 -1778 -1 -1804 -10z"/>
<path d="M4194 6496 c-33 -33 -39 -52 -34 -106 3 -37 17 -59 53 -80 31 -20 67
-20 1807 -20 1389 0 1780 3 1799 13 82 42 88 172 9 213 -23 12 -293 14 -1814
14 l-1786 0 -34 -34z"/>
<path d="M10030 6464 c-28 -26 -50 -53 -50 -60 0 -10 359 -354 718 -688 l32
-30 44 49 c54 60 62 86 40 128 -14 28 -183 191 -575 555 -121 112 -135 115
-209 46z"/>
<path d="M9122 5500 c-425 -451 -772 -824 -772 -829 0 -10 739 -706 751 -706
8 0 1549 1635 1549 1644 0 6 -746 711 -753 711 -2 0 -351 -369 -775 -820z"/>
<path d="M4213 5720 c-36 -21 -50 -43 -53 -80 -5 -54 1 -73 34 -106 l34 -34
1786 0 c1521 0 1791 2 1814 14 79 41 73 171 -9 213 -19 10 -410 13 -1799 13
-1740 0 -1776 0 -1807 -20z"/>
<path d="M4213 4900 c-36 -21 -50 -43 -53 -80 -5 -54 1 -73 34 -106 l34 -34
1786 0 c1521 0 1791 2 1814 14 79 41 73 171 -9 213 -19 10 -410 13 -1799 13
-1740 0 -1776 0 -1807 -20z"/>
<path d="M8226 4550 c-53 -59 -62 -82 -47 -127 12 -36 8 -50 -73 -283 -150
-436 -214 -624 -220 -653 -4 -15 -1 -37 5 -48 9 -17 17 -20 45 -15 18 4 228
88 466 187 369 153 436 178 456 169 42 -19 65 -11 114 40 26 27 48 54 48 59 0
9 -734 703 -749 709 -4 1 -25 -16 -45 -38z"/>
<path d="M4253 4123 c-40 -5 -90 -53 -95 -91 -10 -80 30 -136 104 -147 24 -3
831 -5 1795 -3 l1752 3 28 21 c15 11 34 39 42 61 13 35 13 46 0 78 -8 21 -27
47 -42 59 l-28 21 -1762 1 c-969 1 -1777 -1 -1794 -3z"/>
</g>
</svg>
