<?xml version="1.0" standalone="no"?>
<!DOCTYPE svg PUBLIC "-//W3C//DTD SVG 20010904//EN"
 "http://www.w3.org/TR/2001/REC-SVG-20010904/DTD/svg10.dtd">
<svg version="1.0" xmlns="http://www.w3.org/2000/svg"
 width="1280.000000pt" height="1280.000000pt" viewBox="0 0 1280.000000 1280.000000"
 preserveAspectRatio="xMidYMid meet">
<metadata>
Created by potrace 1.15, written by Peter Selinger 2001-2017
</metadata>
<g transform="translate(0.000000,1280.000000) scale(0.100000,-0.100000)"
fill="#000000" stroke="none">
<path d="M6095 12794 c-27 -2 -115 -8 -195 -14 -1158 -85 -2296 -503 -3249
-1194 -1410 -1020 -2339 -2557 -2585 -4276 -49 -341 -60 -508 -60 -910 0 -402
11 -569 60 -910 176 -1227 699 -2366 1518 -3305 132 -151 433 -452 594 -593
968 -850 2160 -1386 3427 -1541 308 -38 447 -46 795 -46 348 0 487 8 795 46
1993 244 3764 1427 4767 3184 456 799 722 1651 815 2610 24 253 24 857 0 1110
-81 836 -282 1553 -638 2276 -496 1007 -1245 1859 -2194 2499 -271 183 -726
428 -1045 563 -627 266 -1261 422 -1985 488 -112 10 -729 20 -820 13z m845
-569 c748 -74 1424 -266 2069 -589 1755 -879 2947 -2559 3195 -4506 57 -444
57 -1016 0 -1460 -190 -1489 -937 -2843 -2091 -3788 -864 -709 -1899 -1153
-2993 -1286 -276 -34 -395 -41 -720 -41 -325 0 -444 7 -720 41 -2051 249
-3828 1582 -4652 3489 -251 580 -400 1177 -460 1845 -28 312 -15 862 28 1200
247 1945 1440 3627 3195 4506 714 357 1479 558 2309 608 141 8 692 -4 840 -19z"/>
<path d="M6304 10711 c-23 -10 -56 -34 -73 -52 -27 -29 -3627 -6251 -3742
-6467 -31 -58 -39 -83 -39 -125 1 -91 52 -176 135 -220 l40 -22 3775 0 3775 0
40 22 c113 61 166 200 116 308 -10 22 -521 911 -1136 1975 -614 1064 -1450
2513 -1858 3219 -407 706 -754 1296 -770 1312 -44 44 -85 62 -157 66 -50 3
-75 -1 -106 -16z m221 -2216 c152 -40 283 -168 331 -324 20 -66 18 -164 -10
-521 -25 -303 -53 -661 -116 -1455 -16 -203 -34 -386 -41 -405 -43 -122 -149
-193 -289 -193 -140 0 -246 71 -289 193 -7 19 -25 202 -41 405 -65 826 -92
1155 -116 1455 -36 449 -34 493 26 610 27 53 111 144 165 178 106 68 253 90
380 57z m-11 -3265 c69 -26 130 -85 164 -158 68 -148 6 -323 -142 -400 -44
-23 -63 -27 -136 -27 -73 0 -92 4 -136 27 -190 100 -227 348 -74 497 80 78
212 102 324 61z"/>
</g>
</svg>
