<?xml version="1.0" standalone="no"?>
<!DOCTYPE svg PUBLIC "-//W3C//DTD SVG 20010904//EN"
 "http://www.w3.org/TR/2001/REC-SVG-20010904/DTD/svg10.dtd">
<svg version="1.0" xmlns="http://www.w3.org/2000/svg"
 width="37.000000pt" height="37.000000pt" viewBox="0 0 1280.000000 1280.000000"
 preserveAspectRatio="xMidYMid meet">
<metadata>
Created by potrace 1.15, written by Peter Selinger 2001-2017
</metadata>
<g transform="translate(0.000000,1280.000000) scale(0.100000,-0.100000)"
fill="#000000" stroke="none">
<path d="M6095 12794 c-27 -2 -115 -8 -195 -14 -1158 -85 -2296 -503 -3249
-1194 -1410 -1020 -2339 -2557 -2585 -4276 -49 -341 -60 -508 -60 -910 0 -402
11 -569 60 -910 176 -1227 699 -2366 1518 -3305 132 -151 433 -452 594 -593
968 -850 2160 -1386 3427 -1541 308 -38 447 -46 795 -46 348 0 487 8 795 46
1993 244 3764 1427 4767 3184 456 799 722 1651 815 2610 24 253 24 857 0 1110
-81 836 -282 1553 -638 2276 -496 1007 -1245 1859 -2194 2499 -271 183 -726
428 -1045 563 -627 266 -1261 422 -1985 488 -112 10 -729 20 -820 13z m845
-569 c748 -74 1424 -266 2069 -589 1755 -879 2947 -2559 3195 -4506 57 -444
57 -1016 0 -1460 -190 -1489 -937 -2843 -2091 -3788 -864 -709 -1899 -1153
-2993 -1286 -276 -34 -395 -41 -720 -41 -325 0 -444 7 -720 41 -2051 249
-3828 1582 -4652 3489 -251 580 -400 1177 -460 1845 -28 312 -15 862 28 1200
247 1945 1440 3627 3195 4506 714 357 1479 558 2309 608 141 8 692 -4 840 -19z"/>
<path d="M2708 9207 c-131 -45 -220 -125 -280 -253 l-33 -69 0 -2195 0 -2195
37 -78 c61 -128 168 -217 303 -253 74 -20 7256 -20 7330 0 135 36 242 125 303
253 l37 78 0 2195 0 2195 -28 60 c-63 133 -164 225 -294 265 -65 20 -87 20
-3687 20 l-3621 -1 -67 -22z m7344 -269 c35 -21 53 -41 72 -81 l26 -52 -2
-2125 -3 -2125 -21 -40 c-23 -45 -69 -80 -123 -95 -50 -14 -7152 -14 -7202 0
-54 15 -100 50 -123 95 l-21 40 -3 2125 -2 2125 25 52 c27 54 71 90 129 103
17 5 1644 7 3616 7 l3585 -2 47 -27z"/>
<path d="M1966 4013 c19 -180 124 -337 272 -410 l57 -28 4105 0 4105 0 60 29
c35 17 86 55 121 90 85 85 126 176 149 334 l7 42 -4441 0 -4441 0 6 -57z"/>
</g>
</svg>
